<?xml version="1.0" encoding="UTF-8" standalone="no"?>
<!-- Created with Inkscape (http://www.inkscape.org/) -->

<svg
   xmlns:dc="http://purl.org/dc/elements/1.1/"
   xmlns:cc="http://creativecommons.org/ns#"
   xmlns:rdf="http://www.w3.org/1999/02/22-rdf-syntax-ns#"
   xmlns:svg="http://www.w3.org/2000/svg"
   xmlns="http://www.w3.org/2000/svg"
   xmlns:sodipodi="http://sodipodi.sourceforge.net/DTD/sodipodi-0.dtd"
   xmlns:inkscape="http://www.inkscape.org/namespaces/inkscape"
   width="100"
   height="100"
   viewBox="0 0 26.458333 26.458334"
   version="1.1"
   id="svg8"
   inkscape:version="0.92.4 (5da689c313, 2019-01-14)"
   sodipodi:docname="hangmanAlive.svg">
  <defs
     id="defs2" />
  <sodipodi:namedview
     id="base"
     pagecolor="#ffffff"
     bordercolor="#666666"
     borderopacity="1.0"
     inkscape:pageopacity="0.0"
     inkscape:pageshadow="2"
     inkscape:zoom="22.853691"
     inkscape:cx="66.375904"
     inkscape:cy="79.007912"
     inkscape:document-units="mm"
     inkscape:current-layer="layer1"
     showgrid="false"
     inkscape:window-width="1920"
     inkscape:window-height="1001"
     inkscape:window-x="-9"
     inkscape:window-y="-9"
     inkscape:window-maximized="1"
     units="px"
     inkscape:snap-global="false" />
  <metadata
     id="metadata5">
    <rdf:RDF>
      <cc:Work
         rdf:about="">
        <dc:format>image/svg+xml</dc:format>
        <dc:type
           rdf:resource="http://purl.org/dc/dcmitype/StillImage" />
        <dc:title></dc:title>
      </cc:Work>
    </rdf:RDF>
  </metadata>
  <g
     inkscape:label="Layer 1"
     inkscape:groupmode="layer"
     id="layer1"
     transform="translate(0,-270.54165)">
    <g
       id="g859"
       transform="matrix(1.1403826,0,0,1.0828319,-0.08890342,-24.15277)">
      <path
         sodipodi:nodetypes="ccccccccccccc"
         inkscape:connector-curvature="0"
         id="path821"
         d="m 3.0780733,272.44089 15.4231117,0.0655 -0.03274,1.64974 H 17.02764 l -0.03275,-0.30718 -12.4105305,-0.0654 -0.098236,20.43317 h 6.2871285 l 0.03275,2.09526 -10.18383824,4.5e-4 0.0327455,-1.99747 2.39041864,-0.0655 z"
         style="fill:#000000;fill-opacity:1;stroke:none;stroke-width:0.26458332px;stroke-linecap:butt;stroke-linejoin:miter;stroke-opacity:1" />
      <path
         sodipodi:nodetypes="sssss"
         inkscape:connector-curvature="0"
         id="path823"
         d="m 16.212983,277.42572 c 0.721796,-0.75254 2.38965,-0.75557 3.108349,0 0.53312,0.56046 0.474448,1.80117 -0.08695,2.33259 -0.72008,0.68162 -2.25911,0.61768 -2.956192,-0.088 -0.522813,-0.52928 -0.58028,-1.70757 -0.06521,-2.24456 z"
         style="fill:none;stroke:#000000;stroke-width:0.17671549px;stroke-linecap:butt;stroke-linejoin:miter;stroke-opacity:1" />
      <path
         sodipodi:nodetypes="cc"
         inkscape:connector-curvature="0"
         id="path825"
         d="m 17.862649,280.45829 4e-6,3.50937"
         style="fill:none;stroke:#000000;stroke-width:0.25004783px;stroke-linecap:butt;stroke-linejoin:miter;stroke-opacity:1" />
      <path
         style="fill:none;stroke:#000000;stroke-width:0.26029828px;stroke-linecap:butt;stroke-linejoin:miter;stroke-opacity:1"
         d="m 17.864636,284.19579 4e-6,3.48623"
         id="path827"
         inkscape:connector-curvature="0"
         sodipodi:nodetypes="cc" />
      <path
         style="fill:none;stroke:#000000;stroke-width:0.26458332px;stroke-linecap:butt;stroke-linejoin:miter;stroke-opacity:1"
         d="m 22.659041,279.88943 -3.904866,3.42091"
         id="path829"
         inkscape:connector-curvature="0"
         sodipodi:nodetypes="cc" />
      <path
         sodipodi:nodetypes="cc"
         inkscape:connector-curvature="0"
         id="path833"
         d="M 16.922067,283.32281 13.269612,279.7421"
         style="fill:none;stroke:#000000;stroke-width:0.26458332px;stroke-linecap:butt;stroke-linejoin:miter;stroke-opacity:1" />
      <path
         sodipodi:nodetypes="ccccccccc"
         inkscape:connector-curvature="0"
         id="path835"
         d="m 14.719085,292.69396 6.254384,-0.0328 -0.03275,3.65079 h -1.260701 l -0.03275,-2.39009 -3.585628,-0.0164 -0.04911,2.40652 h -1.29345 z"
         style="fill:#000000;fill-opacity:1;stroke:#000000;stroke-width:0.26458332px;stroke-linecap:butt;stroke-linejoin:miter;stroke-opacity:1" />
      <path
         sodipodi:nodetypes="cc"
         inkscape:connector-curvature="0"
         id="path846"
         d="m 20.719289,292.38958 -2.603536,-4.49135"
         style="fill:none;stroke:#000000;stroke-width:0.26458332px;stroke-linecap:butt;stroke-linejoin:miter;stroke-opacity:1" />
      <path
         style="fill:none;stroke:#000000;stroke-width:0.26458332px;stroke-linecap:butt;stroke-linejoin:miter;stroke-opacity:1"
         d="m 15.040452,292.38958 2.603536,-4.49135"
         id="path848"
         inkscape:connector-curvature="0"
         sodipodi:nodetypes="cc" />
    </g>
    <path
       style="fill:none;stroke:#000000;stroke-width:0.26458332px;stroke-linecap:butt;stroke-linejoin:miter;stroke-opacity:1"
       d="M 19.241421,277.04077 Z"
       id="path826"
       inkscape:connector-curvature="0" />
    <path
       style="fill:#000000;stroke:#000000;stroke-width:0.26458332px;stroke-linecap:butt;stroke-linejoin:miter;stroke-opacity:1;fill-opacity:1"
       d="m 19.264576,276.83238 c 0.0342,-0.0418 0.125187,-0.0395 0.162081,0 0.02906,0.0311 0.02203,0.0978 -0.0086,0.12738 -0.03045,0.0294 -0.09371,0.0303 -0.126888,0.004 -0.03503,-0.0277 -0.05488,-0.0968 -0.02659,-0.13138 z"
       id="path828"
       inkscape:connector-curvature="0"
       sodipodi:nodetypes="sssss" />
    <path
       sodipodi:nodetypes="sssss"
       inkscape:connector-curvature="0"
       id="path830"
       d="m 20.852077,276.83238 c 0.0342,-0.0418 0.125187,-0.0395 0.162081,0 0.02906,0.0311 0.02203,0.0978 -0.0086,0.12738 -0.03045,0.0294 -0.09371,0.0303 -0.126888,0.004 -0.03503,-0.0277 -0.05488,-0.0968 -0.02659,-0.13138 z"
       style="fill:#000000;fill-opacity:1;stroke:#000000;stroke-width:0.26458332px;stroke-linecap:butt;stroke-linejoin:miter;stroke-opacity:1" />
    <path
       style="fill:none;stroke:#000000;stroke-width:0.07;stroke-linecap:butt;stroke-linejoin:miter;stroke-miterlimit:4;stroke-dasharray:none;stroke-opacity:1"
       d="m 19.476769,278.0817 c 0,0 0.391566,0.59372 0.762475,0.5972 0.449999,0.004 0.721655,-0.58942 0.721655,-0.58942 z"
       id="path832"
       inkscape:connector-curvature="0"
       sodipodi:nodetypes="cscc" />
  </g>
</svg>
